<svg version="1.1" width="500" height="500" xmlns="http://www.w3.org/2000/svg">
	<g stroke="LightBlue" stroke-width="1">
		<line x1="475.00" x2="457.87" y1="250.00" y2="336.10" />
		<line x1="475.00" x2="409.10" y1="250.00" y2="409.10" />
		<line x1="475.00" x2="336.10" y1="250.00" y2="457.87" />
		<line x1="475.00" x2="250.00" y1="250.00" y2="475.00" />
		<line x1="475.00" x2="163.90" y1="250.00" y2="457.87" />
		<line x1="475.00" x2="90.90" y1="250.00" y2="409.10" />
		<line x1="475.00" x2="42.13" y1="250.00" y2="336.10" />
		<line x1="475.00" x2="25.00" y1="250.00" y2="250.00" />
		<line x1="475.00" x2="42.13" y1="250.00" y2="163.90" />
		<line x1="475.00" x2="90.90" y1="250.00" y2="90.90" />
		<line x1="475.00" x2="163.90" y1="250.00" y2="42.13" />
		<line x1="475.00" x2="250.00" y1="250.00" y2="25.00" />
		<line x1="475.00" x2="336.10" y1="250.00" y2="42.13" />
		<line x1="475.00" x2="409.10" y1="250.00" y2="90.90" />
		<line x1="475.00" x2="457.87" y1="250.00" y2="163.90" />
		<line x1="457.87" x2="475.00" y1="336.10" y2="250.00" />
		<line x1="457.87" x2="409.10" y1="336.10" y2="409.10" />
		<line x1="457.87" x2="336.10" y1="336.10" y2="457.87" />
		<line x1="457.87" x2="250.00" y1="336.10" y2="475.00" />
		<line x1="457.87" x2="163.90" y1="336.10" y2="457.87" />
		<line x1="457.87" x2="90.90" y1="336.10" y2="409.10" />
		<line x1="457.87" x2="42.13" y1="336.10" y2="336.10" />
		<line x1="457.87" x2="25.00" y1="336.10" y2="250.00" />
		<line x1="457.87" x2="42.13" y1="336.10" y2="163.90" />
		<line x1="457.87" x2="90.90" y1="336.10" y2="90.90" />
		<line x1="457.87" x2="163.90" y1="336.10" y2="42.13" />
		<line x1="457.87" x2="250.00" y1="336.10" y2="25.00" />
		<line x1="457.87" x2="336.10" y1="336.10" y2="42.13" />
		<line x1="457.87" x2="409.10" y1="336.10" y2="90.90" />
		<line x1="457.87" x2="457.87" y1="336.10" y2="163.90" />
		<line x1="409.10" x2="475.00" y1="409.10" y2="250.00" />
		<line x1="409.10" x2="457.87" y1="409.10" y2="336.10" />
		<line x1="409.10" x2="336.10" y1="409.10" y2="457.87" />
		<line x1="409.10" x2="250.00" y1="409.10" y2="475.00" />
		<line x1="409.10" x2="163.90" y1="409.10" y2="457.87" />
		<line x1="409.10" x2="90.90" y1="409.10" y2="409.10" />
		<line x1="409.10" x2="42.13" y1="409.10" y2="336.10" />
		<line x1="409.10" x2="25.00" y1="409.10" y2="250.00" />
		<line x1="409.10" x2="42.13" y1="409.10" y2="163.90" />
		<line x1="409.10" x2="90.90" y1="409.10" y2="90.90" />
		<line x1="409.10" x2="163.90" y1="409.10" y2="42.13" />
		<line x1="409.10" x2="250.00" y1="409.10" y2="25.00" />
		<line x1="409.10" x2="336.10" y1="409.10" y2="42.13" />
		<line x1="409.10" x2="409.10" y1="409.10" y2="90.90" />
		<line x1="409.10" x2="457.87" y1="409.10" y2="163.90" />
		<line x1="336.10" x2="475.00" y1="457.87" y2="250.00" />
		<line x1="336.10" x2="457.87" y1="457.87" y2="336.10" />
		<line x1="336.10" x2="409.10" y1="457.87" y2="409.10" />
		<line x1="336.10" x2="250.00" y1="457.87" y2="475.00" />
		<line x1="336.10" x2="163.90" y1="457.87" y2="457.87" />
		<line x1="336.10" x2="90.90" y1="457.87" y2="409.10" />
		<line x1="336.10" x2="42.13" y1="457.87" y2="336.10" />
		<line x1="336.10" x2="25.00" y1="457.87" y2="250.00" />
		<line x1="336.10" x2="42.13" y1="457.87" y2="163.90" />
		<line x1="336.10" x2="90.90" y1="457.87" y2="90.90" />
		<line x1="336.10" x2="163.90" y1="457.87" y2="42.13" />
		<line x1="336.10" x2="250.00" y1="457.87" y2="25.00" />
		<line x1="336.10" x2="336.10" y1="457.87" y2="42.13" />
		<line x1="336.10" x2="409.10" y1="457.87" y2="90.90" />
		<line x1="336.10" x2="457.87" y1="457.87" y2="163.90" />
		<line x1="250.00" x2="475.00" y1="475.00" y2="250.00" />
		<line x1="250.00" x2="457.87" y1="475.00" y2="336.10" />
		<line x1="250.00" x2="409.10" y1="475.00" y2="409.10" />
		<line x1="250.00" x2="336.10" y1="475.00" y2="457.87" />
		<line x1="250.00" x2="163.90" y1="475.00" y2="457.87" />
		<line x1="250.00" x2="90.90" y1="475.00" y2="409.10" />
		<line x1="250.00" x2="42.13" y1="475.00" y2="336.10" />
		<line x1="250.00" x2="25.00" y1="475.00" y2="250.00" />
		<line x1="250.00" x2="42.13" y1="475.00" y2="163.90" />
		<line x1="250.00" x2="90.90" y1="475.00" y2="90.90" />
		<line x1="250.00" x2="163.90" y1="475.00" y2="42.13" />
		<line x1="250.00" x2="250.00" y1="475.00" y2="25.00" />
		<line x1="250.00" x2="336.10" y1="475.00" y2="42.13" />
		<line x1="250.00" x2="409.10" y1="475.00" y2="90.90" />
		<line x1="250.00" x2="457.87" y1="475.00" y2="163.90" />
		<line x1="163.90" x2="475.00" y1="457.87" y2="250.00" />
		<line x1="163.90" x2="457.87" y1="457.87" y2="336.10" />
		<line x1="163.90" x2="409.10" y1="457.87" y2="409.10" />
		<line x1="163.90" x2="336.10" y1="457.87" y2="457.87" />
		<line x1="163.90" x2="250.00" y1="457.87" y2="475.00" />
		<line x1="163.90" x2="90.90" y1="457.87" y2="409.10" />
		<line x1="163.90" x2="42.13" y1="457.87" y2="336.10" />
		<line x1="163.90" x2="25.00" y1="457.87" y2="250.00" />
		<line x1="163.90" x2="42.13" y1="457.87" y2="163.90" />
		<line x1="163.90" x2="90.90" y1="457.87" y2="90.90" />
		<line x1="163.90" x2="163.90" y1="457.87" y2="42.13" />
		<line x1="163.90" x2="250.00" y1="457.87" y2="25.00" />
		<line x1="163.90" x2="336.10" y1="457.87" y2="42.13" />
		<line x1="163.90" x2="409.10" y1="457.87" y2="90.90" />
		<line x1="163.90" x2="457.87" y1="457.87" y2="163.90" />
		<line x1="90.90" x2="475.00" y1="409.10" y2="250.00" />
		<line x1="90.90" x2="457.87" y1="409.10" y2="336.10" />
		<line x1="90.90" x2="409.10" y1="409.10" y2="409.10" />
		<line x1="90.90" x2="336.10" y1="409.10" y2="457.87" />
		<line x1="90.90" x2="250.00" y1="409.10" y2="475.00" />
		<line x1="90.90" x2="163.90" y1="409.10" y2="457.87" />
		<line x1="90.90" x2="42.13" y1="409.10" y2="336.10" />
		<line x1="90.90" x2="25.00" y1="409.10" y2="250.00" />
		<line x1="90.90" x2="42.13" y1="409.10" y2="163.90" />
		<line x1="90.90" x2="90.90" y1="409.10" y2="90.90" />
		<line x1="90.90" x2="163.90" y1="409.10" y2="42.13" />
		<line x1="90.90" x2="250.00" y1="409.10" y2="25.00" />
		<line x1="90.90" x2="336.10" y1="409.10" y2="42.13" />
		<line x1="90.90" x2="409.10" y1="409.10" y2="90.90" />
		<line x1="90.90" x2="457.87" y1="409.10" y2="163.90" />
		<line x1="42.13" x2="475.00" y1="336.10" y2="250.00" />
		<line x1="42.13" x2="457.87" y1="336.10" y2="336.10" />
		<line x1="42.13" x2="409.10" y1="336.10" y2="409.10" />
		<line x1="42.13" x2="336.10" y1="336.10" y2="457.87" />
		<line x1="42.13" x2="250.00" y1="336.10" y2="475.00" />
		<line x1="42.13" x2="163.90" y1="336.10" y2="457.87" />
		<line x1="42.13" x2="90.90" y1="336.10" y2="409.10" />
		<line x1="42.13" x2="25.00" y1="336.10" y2="250.00" />
		<line x1="42.13" x2="42.13" y1="336.10" y2="163.90" />
		<line x1="42.13" x2="90.90" y1="336.10" y2="90.90" />
		<line x1="42.13" x2="163.90" y1="336.10" y2="42.13" />
		<line x1="42.13" x2="250.00" y1="336.10" y2="25.00" />
		<line x1="42.13" x2="336.10" y1="336.10" y2="42.13" />
		<line x1="42.13" x2="409.10" y1="336.10" y2="90.90" />
		<line x1="42.13" x2="457.87" y1="336.10" y2="163.90" />
		<line x1="25.00" x2="475.00" y1="250.00" y2="250.00" />
		<line x1="25.00" x2="457.87" y1="250.00" y2="336.10" />
		<line x1="25.00" x2="409.10" y1="250.00" y2="409.10" />
		<line x1="25.00" x2="336.10" y1="250.00" y2="457.87" />
		<line x1="25.00" x2="250.00" y1="250.00" y2="475.00" />
		<line x1="25.00" x2="163.90" y1="250.00" y2="457.87" />
		<line x1="25.00" x2="90.90" y1="250.00" y2="409.10" />
		<line x1="25.00" x2="42.13" y1="250.00" y2="336.10" />
		<line x1="25.00" x2="42.13" y1="250.00" y2="163.90" />
		<line x1="25.00" x2="90.90" y1="250.00" y2="90.90" />
		<line x1="25.00" x2="163.90" y1="250.00" y2="42.13" />
		<line x1="25.00" x2="250.00" y1="250.00" y2="25.00" />
		<line x1="25.00" x2="336.10" y1="250.00" y2="42.13" />
		<line x1="25.00" x2="409.10" y1="250.00" y2="90.90" />
		<line x1="25.00" x2="457.87" y1="250.00" y2="163.90" />
		<line x1="42.13" x2="475.00" y1="163.90" y2="250.00" />
		<line x1="42.13" x2="457.87" y1="163.90" y2="336.10" />
		<line x1="42.13" x2="409.10" y1="163.90" y2="409.10" />
		<line x1="42.13" x2="336.10" y1="163.90" y2="457.87" />
		<line x1="42.13" x2="250.00" y1="163.90" y2="475.00" />
		<line x1="42.13" x2="163.90" y1="163.90" y2="457.87" />
		<line x1="42.13" x2="90.90" y1="163.90" y2="409.10" />
		<line x1="42.13" x2="42.13" y1="163.90" y2="336.10" />
		<line x1="42.13" x2="25.00" y1="163.90" y2="250.00" />
		<line x1="42.13" x2="90.90" y1="163.90" y2="90.90" />
		<line x1="42.13" x2="163.90" y1="163.90" y2="42.13" />
		<line x1="42.13" x2="250.00" y1="163.90" y2="25.00" />
		<line x1="42.13" x2="336.10" y1="163.90" y2="42.13" />
		<line x1="42.13" x2="409.10" y1="163.90" y2="90.90" />
		<line x1="42.13" x2="457.87" y1="163.90" y2="163.90" />
		<line x1="90.90" x2="475.00" y1="90.90" y2="250.00" />
		<line x1="90.90" x2="457.87" y1="90.90" y2="336.10" />
		<line x1="90.90" x2="409.10" y1="90.90" y2="409.10" />
		<line x1="90.90" x2="336.10" y1="90.90" y2="457.87" />
		<line x1="90.90" x2="250.00" y1="90.90" y2="475.00" />
		<line x1="90.90" x2="163.90" y1="90.90" y2="457.87" />
		<line x1="90.90" x2="90.90" y1="90.90" y2="409.10" />
		<line x1="90.90" x2="42.13" y1="90.90" y2="336.10" />
		<line x1="90.90" x2="25.00" y1="90.90" y2="250.00" />
		<line x1="90.90" x2="42.13" y1="90.90" y2="163.90" />
		<line x1="90.90" x2="163.90" y1="90.90" y2="42.13" />
		<line x1="90.90" x2="250.00" y1="90.90" y2="25.00" />
		<line x1="90.90" x2="336.10" y1="90.90" y2="42.13" />
		<line x1="90.90" x2="409.10" y1="90.90" y2="90.90" />
		<line x1="90.90" x2="457.87" y1="90.90" y2="163.90" />
		<line x1="163.90" x2="475.00" y1="42.13" y2="250.00" />
		<line x1="163.90" x2="457.87" y1="42.13" y2="336.10" />
		<line x1="163.90" x2="409.10" y1="42.13" y2="409.10" />
		<line x1="163.90" x2="336.10" y1="42.13" y2="457.87" />
		<line x1="163.90" x2="250.00" y1="42.13" y2="475.00" />
		<line x1="163.90" x2="163.90" y1="42.13" y2="457.87" />
		<line x1="163.90" x2="90.90" y1="42.13" y2="409.10" />
		<line x1="163.90" x2="42.13" y1="42.13" y2="336.10" />
		<line x1="163.90" x2="25.00" y1="42.13" y2="250.00" />
		<line x1="163.90" x2="42.13" y1="42.13" y2="163.90" />
		<line x1="163.90" x2="90.90" y1="42.13" y2="90.90" />
		<line x1="163.90" x2="250.00" y1="42.13" y2="25.00" />
		<line x1="163.90" x2="336.10" y1="42.13" y2="42.13" />
		<line x1="163.90" x2="409.10" y1="42.13" y2="90.90" />
		<line x1="163.90" x2="457.87" y1="42.13" y2="163.90" />
		<line x1="250.00" x2="475.00" y1="25.00" y2="250.00" />
		<line x1="250.00" x2="457.87" y1="25.00" y2="336.10" />
		<line x1="250.00" x2="409.10" y1="25.00" y2="409.10" />
		<line x1="250.00" x2="336.10" y1="25.00" y2="457.87" />
		<line x1="250.00" x2="250.00" y1="25.00" y2="475.00" />
		<line x1="250.00" x2="163.90" y1="25.00" y2="457.87" />
		<line x1="250.00" x2="90.90" y1="25.00" y2="409.10" />
		<line x1="250.00" x2="42.13" y1="25.00" y2="336.10" />
		<line x1="250.00" x2="25.00" y1="25.00" y2="250.00" />
		<line x1="250.00" x2="42.13" y1="25.00" y2="163.90" />
		<line x1="250.00" x2="90.90" y1="25.00" y2="90.90" />
		<line x1="250.00" x2="163.90" y1="25.00" y2="42.13" />
		<line x1="250.00" x2="336.10" y1="25.00" y2="42.13" />
		<line x1="250.00" x2="409.10" y1="25.00" y2="90.90" />
		<line x1="250.00" x2="457.87" y1="25.00" y2="163.90" />
		<line x1="336.10" x2="475.00" y1="42.13" y2="250.00" />
		<line x1="336.10" x2="457.87" y1="42.13" y2="336.10" />
		<line x1="336.10" x2="409.10" y1="42.13" y2="409.10" />
		<line x1="336.10" x2="336.10" y1="42.13" y2="457.87" />
		<line x1="336.10" x2="250.00" y1="42.13" y2="475.00" />
		<line x1="336.10" x2="163.90" y1="42.13" y2="457.87" />
		<line x1="336.10" x2="90.90" y1="42.13" y2="409.10" />
		<line x1="336.10" x2="42.13" y1="42.13" y2="336.10" />
		<line x1="336.10" x2="25.00" y1="42.13" y2="250.00" />
		<line x1="336.10" x2="42.13" y1="42.13" y2="163.90" />
		<line x1="336.10" x2="90.90" y1="42.13" y2="90.90" />
		<line x1="336.10" x2="163.90" y1="42.13" y2="42.13" />
		<line x1="336.10" x2="250.00" y1="42.13" y2="25.00" />
		<line x1="336.10" x2="409.10" y1="42.13" y2="90.90" />
		<line x1="336.10" x2="457.87" y1="42.13" y2="163.90" />
		<line x1="409.10" x2="475.00" y1="90.90" y2="250.00" />
		<line x1="409.10" x2="457.87" y1="90.90" y2="336.10" />
		<line x1="409.10" x2="409.10" y1="90.90" y2="409.10" />
		<line x1="409.10" x2="336.10" y1="90.90" y2="457.87" />
		<line x1="409.10" x2="250.00" y1="90.90" y2="475.00" />
		<line x1="409.10" x2="163.90" y1="90.90" y2="457.87" />
		<line x1="409.10" x2="90.90" y1="90.90" y2="409.10" />
		<line x1="409.10" x2="42.13" y1="90.90" y2="336.10" />
		<line x1="409.10" x2="25.00" y1="90.90" y2="250.00" />
		<line x1="409.10" x2="42.13" y1="90.90" y2="163.90" />
		<line x1="409.10" x2="90.90" y1="90.90" y2="90.90" />
		<line x1="409.10" x2="163.90" y1="90.90" y2="42.13" />
		<line x1="409.10" x2="250.00" y1="90.90" y2="25.00" />
		<line x1="409.10" x2="336.10" y1="90.90" y2="42.13" />
		<line x1="409.10" x2="457.87" y1="90.90" y2="163.90" />
		<line x1="457.87" x2="475.00" y1="163.90" y2="250.00" />
		<line x1="457.87" x2="457.87" y1="163.90" y2="336.10" />
		<line x1="457.87" x2="409.10" y1="163.90" y2="409.10" />
		<line x1="457.87" x2="336.10" y1="163.90" y2="457.87" />
		<line x1="457.87" x2="250.00" y1="163.90" y2="475.00" />
		<line x1="457.87" x2="163.90" y1="163.90" y2="457.87" />
		<line x1="457.87" x2="90.90" y1="163.90" y2="409.10" />
		<line x1="457.87" x2="42.13" y1="163.90" y2="336.10" />
		<line x1="457.87" x2="25.00" y1="163.90" y2="250.00" />
		<line x1="457.87" x2="42.13" y1="163.90" y2="163.90" />
		<line x1="457.87" x2="90.90" y1="163.90" y2="90.90" />
		<line x1="457.87" x2="163.90" y1="163.90" y2="42.13" />
		<line x1="457.87" x2="250.00" y1="163.90" y2="25.00" />
		<line x1="457.87" x2="336.10" y1="163.90" y2="42.13" />
		<line x1="457.87" x2="409.10" y1="163.90" y2="90.90" />
	</g>
</svg>
